G04 #@! TF.GenerationSoftware,KiCad,Pcbnew,8.0.6-8.0.6-0~ubuntu22.04.1*
G04 #@! TF.CreationDate,2024-11-17T18:12:57-05:00*
G04 #@! TF.ProjectId,NanoDD,4e616e6f-4444-42e6-9b69-6361645f7063,rev?*
G04 #@! TF.SameCoordinates,Original*
G04 #@! TF.FileFunction,Paste,Bot*
G04 #@! TF.FilePolarity,Positive*
%FSLAX46Y46*%
G04 Gerber Fmt 4.6, Leading zero omitted, Abs format (unit mm)*
G04 Created by KiCad (PCBNEW 8.0.6-8.0.6-0~ubuntu22.04.1) date 2024-11-17 18:12:57*
%MOMM*%
%LPD*%
G01*
G04 APERTURE LIST*
G04 Aperture macros list*
%AMRoundRect*
0 Rectangle with rounded corners*
0 $1 Rounding radius*
0 $2 $3 $4 $5 $6 $7 $8 $9 X,Y pos of 4 corners*
0 Add a 4 corners polygon primitive as box body*
4,1,4,$2,$3,$4,$5,$6,$7,$8,$9,$2,$3,0*
0 Add four circle primitives for the rounded corners*
1,1,$1+$1,$2,$3*
1,1,$1+$1,$4,$5*
1,1,$1+$1,$6,$7*
1,1,$1+$1,$8,$9*
0 Add four rect primitives between the rounded corners*
20,1,$1+$1,$2,$3,$4,$5,0*
20,1,$1+$1,$4,$5,$6,$7,0*
20,1,$1+$1,$6,$7,$8,$9,0*
20,1,$1+$1,$8,$9,$2,$3,0*%
G04 Aperture macros list end*
%ADD10RoundRect,0.135000X-0.135000X-0.185000X0.135000X-0.185000X0.135000X0.185000X-0.135000X0.185000X0*%
%ADD11RoundRect,0.225000X-0.225000X-0.250000X0.225000X-0.250000X0.225000X0.250000X-0.225000X0.250000X0*%
%ADD12RoundRect,0.150000X0.587500X0.150000X-0.587500X0.150000X-0.587500X-0.150000X0.587500X-0.150000X0*%
%ADD13RoundRect,0.135000X0.185000X-0.135000X0.185000X0.135000X-0.185000X0.135000X-0.185000X-0.135000X0*%
%ADD14RoundRect,0.225000X-0.250000X0.225000X-0.250000X-0.225000X0.250000X-0.225000X0.250000X0.225000X0*%
%ADD15RoundRect,0.135000X-0.185000X0.135000X-0.185000X-0.135000X0.185000X-0.135000X0.185000X0.135000X0*%
%ADD16RoundRect,0.140000X0.219203X0.021213X0.021213X0.219203X-0.219203X-0.021213X-0.021213X-0.219203X0*%
%ADD17RoundRect,0.218750X-0.218750X-0.256250X0.218750X-0.256250X0.218750X0.256250X-0.218750X0.256250X0*%
%ADD18RoundRect,0.100000X-0.637500X-0.100000X0.637500X-0.100000X0.637500X0.100000X-0.637500X0.100000X0*%
%ADD19RoundRect,0.135000X0.135000X0.185000X-0.135000X0.185000X-0.135000X-0.185000X0.135000X-0.185000X0*%
%ADD20RoundRect,0.140000X0.170000X-0.140000X0.170000X0.140000X-0.170000X0.140000X-0.170000X-0.140000X0*%
%ADD21RoundRect,0.150000X-0.587500X-0.150000X0.587500X-0.150000X0.587500X0.150000X-0.587500X0.150000X0*%
%ADD22RoundRect,0.182500X0.258094X0.000000X0.000000X0.258094X-0.258094X0.000000X0.000000X-0.258094X0*%
%ADD23RoundRect,0.087500X0.291682X-0.167938X-0.167938X0.291682X-0.291682X0.167938X0.167938X-0.291682X0*%
%ADD24RoundRect,0.087500X0.291682X0.167938X0.167938X0.291682X-0.291682X-0.167938X-0.167938X-0.291682X0*%
%ADD25RoundRect,0.150000X-0.512500X-0.150000X0.512500X-0.150000X0.512500X0.150000X-0.512500X0.150000X0*%
%ADD26R,0.950000X0.550000*%
G04 APERTURE END LIST*
D10*
G04 #@! TO.C,R5*
X174800800Y-92583000D03*
X175820800Y-92583000D03*
G04 #@! TD*
D11*
G04 #@! TO.C,C5*
X165391800Y-92735400D03*
X166941800Y-92735400D03*
G04 #@! TD*
D12*
G04 #@! TO.C,Q1*
X190373000Y-93096000D03*
X190373000Y-94996000D03*
X188498000Y-94046000D03*
G04 #@! TD*
D13*
G04 #@! TO.C,R4*
X185521600Y-97715800D03*
X185521600Y-96695800D03*
G04 #@! TD*
D14*
G04 #@! TO.C,C4*
X169595800Y-92722400D03*
X169595800Y-94272400D03*
G04 #@! TD*
D15*
G04 #@! TO.C,R3*
X186893200Y-97432400D03*
X186893200Y-98452400D03*
G04 #@! TD*
D10*
G04 #@! TO.C,R8*
X165275800Y-97434400D03*
X166295800Y-97434400D03*
G04 #@! TD*
D13*
G04 #@! TO.C,R12*
X159639000Y-97540000D03*
X159639000Y-96520000D03*
G04 #@! TD*
D16*
G04 #@! TO.C,C1*
X181229000Y-93345000D03*
X180550178Y-92666178D03*
G04 #@! TD*
D17*
G04 #@! TO.C,D1*
X182422700Y-97256600D03*
X183997700Y-97256600D03*
G04 #@! TD*
D18*
G04 #@! TO.C,U3*
X165666500Y-100720800D03*
X165666500Y-100070800D03*
X165666500Y-99420800D03*
X165666500Y-98770800D03*
X171391500Y-98770800D03*
X171391500Y-99420800D03*
X171391500Y-100070800D03*
X171391500Y-100720800D03*
G04 #@! TD*
D19*
G04 #@! TO.C,R7*
X174398400Y-99009200D03*
X173378400Y-99009200D03*
G04 #@! TD*
D15*
G04 #@! TO.C,R10*
X159639000Y-92454000D03*
X159639000Y-93474000D03*
G04 #@! TD*
D10*
G04 #@! TO.C,R9*
X167434800Y-97434400D03*
X168454800Y-97434400D03*
G04 #@! TD*
D20*
G04 #@! TO.C,C2*
X173075600Y-101064000D03*
X173075600Y-100104000D03*
G04 #@! TD*
G04 #@! TO.C,C3*
X169604000Y-96771400D03*
X169604000Y-95811400D03*
G04 #@! TD*
D21*
G04 #@! TO.C,Q2*
X156210000Y-99944000D03*
X156210000Y-98044000D03*
X158085000Y-98994000D03*
G04 #@! TD*
D22*
G04 #@! TO.C,U1*
X178562000Y-96649792D03*
X179198396Y-96013396D03*
X179834792Y-95377000D03*
X177925604Y-96013396D03*
X178562000Y-95377000D03*
X179198396Y-94740604D03*
X177289208Y-95377000D03*
X177925604Y-94740604D03*
X178562000Y-94104208D03*
D23*
X180639126Y-96075268D03*
X180179507Y-96534887D03*
X179719887Y-96994507D03*
X179260268Y-97454126D03*
D24*
X177863732Y-97454126D03*
X177404113Y-96994507D03*
X176944493Y-96534887D03*
X176484874Y-96075268D03*
D23*
X176484874Y-94678732D03*
X176944493Y-94219113D03*
X177404113Y-93759493D03*
X177863732Y-93299874D03*
D24*
X179260268Y-93299874D03*
X179719887Y-93759493D03*
X180179507Y-94219113D03*
X180639126Y-94678732D03*
G04 #@! TD*
D25*
G04 #@! TO.C,U4*
X165410300Y-96123800D03*
X165410300Y-94223800D03*
X167685300Y-95173800D03*
G04 #@! TD*
D19*
G04 #@! TO.C,R6*
X174396400Y-97840800D03*
X173376400Y-97840800D03*
G04 #@! TD*
D15*
G04 #@! TO.C,R1*
X186893200Y-95449200D03*
X186893200Y-96469200D03*
G04 #@! TD*
D13*
G04 #@! TO.C,R2*
X186893200Y-100484400D03*
X186893200Y-99464400D03*
G04 #@! TD*
G04 #@! TO.C,R11*
X159639000Y-95506000D03*
X159639000Y-94486000D03*
G04 #@! TD*
D26*
G04 #@! TO.C,U5*
X171450000Y-96413800D03*
X171450000Y-95163800D03*
X171450000Y-93913800D03*
X171450000Y-92663800D03*
X173600000Y-92663800D03*
X173600000Y-93913800D03*
X173600000Y-95163800D03*
X173600000Y-96413800D03*
G04 #@! TD*
M02*
