M48
; DRILL file {KiCad 8.0.6-8.0.6-0~ubuntu22.04.1} date 2024-11-17T18:12:57-0500
; FORMAT={-:-/ absolute / metric / decimal}
; #@! TF.CreationDate,2024-11-17T18:12:57-05:00
; #@! TF.GenerationSoftware,Kicad,Pcbnew,8.0.6-8.0.6-0~ubuntu22.04.1
; #@! TF.FileFunction,MixedPlating,1,2
FMAT,2
METRIC
; #@! TA.AperFunction,Plated,PTH,ViaDrill
T1C0.305
; #@! TA.AperFunction,Plated,PTH,ComponentDrill
T2C0.500
; #@! TA.AperFunction,Plated,PTH,ComponentDrill
T3C0.800
; #@! TA.AperFunction,Plated,PTH,ComponentDrill
T4C1.100
; #@! TA.AperFunction,NonPlated,NPTH,ComponentDrill
T5C2.200
%
G90
G05
T1
X156.886Y-98.994
X164.173Y-97.447
X166.878Y-99.06
X167.234Y-96.138
X167.691Y-92.735
X169.215Y-97.536
X170.282Y-99.822
X175.285Y-95.58
X175.311Y-94.234
X175.311Y-94.92
X175.412Y-96.622
X175.412Y-97.892
X176.251Y-99.212
X178.689Y-91.973
X178.689Y-92.71
X181.381Y-94.158
X181.987Y-94.158
X189.535Y-94.046
T2
X177.469Y-99.924
X178.719Y-99.924
X179.969Y-99.924
X181.219Y-99.924
X182.469Y-99.924
X183.719Y-99.924
T3
X162.433Y-92.98
X162.433Y-94.98
T4
X156.591Y-93.472
X156.591Y-96.012
X189.992Y-97.028
X189.992Y-99.568
T5
X162.179Y-99.695
X184.404Y-93.345
M30
