G04 #@! TF.GenerationSoftware,KiCad,Pcbnew,8.0.6-8.0.6-0~ubuntu22.04.1*
G04 #@! TF.CreationDate,2024-11-17T18:12:57-05:00*
G04 #@! TF.ProjectId,NanoDD,4e616e6f-4444-42e6-9b69-6361645f7063,rev?*
G04 #@! TF.SameCoordinates,Original*
G04 #@! TF.FileFunction,Legend,Top*
G04 #@! TF.FilePolarity,Positive*
%FSLAX46Y46*%
G04 Gerber Fmt 4.6, Leading zero omitted, Abs format (unit mm)*
G04 Created by KiCad (PCBNEW 8.0.6-8.0.6-0~ubuntu22.04.1) date 2024-11-17 18:12:57*
%MOMM*%
%LPD*%
G01*
G04 APERTURE LIST*
%ADD10C,0.152400*%
%ADD11C,0.150000*%
%ADD12C,0.120000*%
G04 APERTURE END LIST*
D10*
X158114808Y-99240305D02*
X158114808Y-100240305D01*
X158114808Y-100240305D02*
X157781475Y-99526020D01*
X157781475Y-99526020D02*
X157448142Y-100240305D01*
X157448142Y-100240305D02*
X157448142Y-99240305D01*
X157019570Y-99526020D02*
X156543380Y-99526020D01*
X157114808Y-99240305D02*
X156781475Y-100240305D01*
X156781475Y-100240305D02*
X156448142Y-99240305D01*
X156114808Y-99240305D02*
X156114808Y-100240305D01*
X155638618Y-99240305D02*
X155638618Y-100240305D01*
X155638618Y-100240305D02*
X155067190Y-99240305D01*
X155067190Y-99240305D02*
X155067190Y-100240305D01*
X192753904Y-92890305D02*
X192753904Y-93890305D01*
X192753904Y-93890305D02*
X192515809Y-93890305D01*
X192515809Y-93890305D02*
X192372952Y-93842686D01*
X192372952Y-93842686D02*
X192277714Y-93747448D01*
X192277714Y-93747448D02*
X192230095Y-93652210D01*
X192230095Y-93652210D02*
X192182476Y-93461734D01*
X192182476Y-93461734D02*
X192182476Y-93318877D01*
X192182476Y-93318877D02*
X192230095Y-93128401D01*
X192230095Y-93128401D02*
X192277714Y-93033163D01*
X192277714Y-93033163D02*
X192372952Y-92937925D01*
X192372952Y-92937925D02*
X192515809Y-92890305D01*
X192515809Y-92890305D02*
X192753904Y-92890305D01*
X191182476Y-92890305D02*
X191515809Y-93366496D01*
X191753904Y-92890305D02*
X191753904Y-93890305D01*
X191753904Y-93890305D02*
X191372952Y-93890305D01*
X191372952Y-93890305D02*
X191277714Y-93842686D01*
X191277714Y-93842686D02*
X191230095Y-93795067D01*
X191230095Y-93795067D02*
X191182476Y-93699829D01*
X191182476Y-93699829D02*
X191182476Y-93556972D01*
X191182476Y-93556972D02*
X191230095Y-93461734D01*
X191230095Y-93461734D02*
X191277714Y-93414115D01*
X191277714Y-93414115D02*
X191372952Y-93366496D01*
X191372952Y-93366496D02*
X191753904Y-93366496D01*
X190563428Y-93890305D02*
X190372952Y-93890305D01*
X190372952Y-93890305D02*
X190277714Y-93842686D01*
X190277714Y-93842686D02*
X190182476Y-93747448D01*
X190182476Y-93747448D02*
X190134857Y-93556972D01*
X190134857Y-93556972D02*
X190134857Y-93223639D01*
X190134857Y-93223639D02*
X190182476Y-93033163D01*
X190182476Y-93033163D02*
X190277714Y-92937925D01*
X190277714Y-92937925D02*
X190372952Y-92890305D01*
X190372952Y-92890305D02*
X190563428Y-92890305D01*
X190563428Y-92890305D02*
X190658666Y-92937925D01*
X190658666Y-92937925D02*
X190753904Y-93033163D01*
X190753904Y-93033163D02*
X190801523Y-93223639D01*
X190801523Y-93223639D02*
X190801523Y-93556972D01*
X190801523Y-93556972D02*
X190753904Y-93747448D01*
X190753904Y-93747448D02*
X190658666Y-93842686D01*
X190658666Y-93842686D02*
X190563428Y-93890305D01*
X189182476Y-93842686D02*
X189277714Y-93890305D01*
X189277714Y-93890305D02*
X189420571Y-93890305D01*
X189420571Y-93890305D02*
X189563428Y-93842686D01*
X189563428Y-93842686D02*
X189658666Y-93747448D01*
X189658666Y-93747448D02*
X189706285Y-93652210D01*
X189706285Y-93652210D02*
X189753904Y-93461734D01*
X189753904Y-93461734D02*
X189753904Y-93318877D01*
X189753904Y-93318877D02*
X189706285Y-93128401D01*
X189706285Y-93128401D02*
X189658666Y-93033163D01*
X189658666Y-93033163D02*
X189563428Y-92937925D01*
X189563428Y-92937925D02*
X189420571Y-92890305D01*
X189420571Y-92890305D02*
X189325333Y-92890305D01*
X189325333Y-92890305D02*
X189182476Y-92937925D01*
X189182476Y-92937925D02*
X189134857Y-92985544D01*
X189134857Y-92985544D02*
X189134857Y-93318877D01*
X189134857Y-93318877D02*
X189325333Y-93318877D01*
X188706285Y-93890305D02*
X188706285Y-93080782D01*
X188706285Y-93080782D02*
X188658666Y-92985544D01*
X188658666Y-92985544D02*
X188611047Y-92937925D01*
X188611047Y-92937925D02*
X188515809Y-92890305D01*
X188515809Y-92890305D02*
X188325333Y-92890305D01*
X188325333Y-92890305D02*
X188230095Y-92937925D01*
X188230095Y-92937925D02*
X188182476Y-92985544D01*
X188182476Y-92985544D02*
X188134857Y-93080782D01*
X188134857Y-93080782D02*
X188134857Y-93890305D01*
X187658666Y-93414115D02*
X187325333Y-93414115D01*
X187182476Y-92890305D02*
X187658666Y-92890305D01*
X187658666Y-92890305D02*
X187658666Y-93890305D01*
X187658666Y-93890305D02*
X187182476Y-93890305D01*
X163482558Y-96364341D02*
X164244463Y-96364341D01*
X163863510Y-96745294D02*
X163863510Y-95983389D01*
X166514881Y-99760386D02*
X167062056Y-100219520D01*
X167062056Y-100219520D02*
X167140882Y-100347825D01*
X167140882Y-100347825D02*
X167152620Y-100481999D01*
X167152620Y-100481999D02*
X167097272Y-100622043D01*
X167097272Y-100622043D02*
X167036054Y-100695000D01*
X167893104Y-99673607D02*
X167587015Y-100038390D01*
X167587015Y-100038390D02*
X166820970Y-99395602D01*
X168401718Y-98919301D02*
X168407587Y-98986388D01*
X168407587Y-98986388D02*
X168352238Y-99126432D01*
X168352238Y-99126432D02*
X168291021Y-99199389D01*
X168291021Y-99199389D02*
X168162715Y-99278215D01*
X168162715Y-99278215D02*
X168028541Y-99289953D01*
X168028541Y-99289953D02*
X167924975Y-99265214D01*
X167924975Y-99265214D02*
X167748453Y-99179256D01*
X167748453Y-99179256D02*
X167639018Y-99087430D01*
X167639018Y-99087430D02*
X167523714Y-98928516D01*
X167523714Y-98928516D02*
X167481366Y-98830819D01*
X167481366Y-98830819D02*
X167469628Y-98696645D01*
X167469628Y-98696645D02*
X167524976Y-98556601D01*
X167524976Y-98556601D02*
X167586194Y-98483644D01*
X167586194Y-98483644D02*
X167714499Y-98404818D01*
X167714499Y-98404818D02*
X167781586Y-98398949D01*
X168167764Y-97790557D02*
X168714938Y-98249691D01*
X168714938Y-98249691D02*
X168793764Y-98377996D01*
X168793764Y-98377996D02*
X168805503Y-98512170D01*
X168805503Y-98512170D02*
X168750155Y-98652214D01*
X168750155Y-98652214D02*
X168688937Y-98725171D01*
X169545987Y-97703778D02*
X169239898Y-98068561D01*
X169239898Y-98068561D02*
X168473853Y-97425773D01*
X170054600Y-96949472D02*
X170060470Y-97016559D01*
X170060470Y-97016559D02*
X170005121Y-97156603D01*
X170005121Y-97156603D02*
X169943903Y-97229560D01*
X169943903Y-97229560D02*
X169815598Y-97308386D01*
X169815598Y-97308386D02*
X169681424Y-97320125D01*
X169681424Y-97320125D02*
X169577858Y-97295385D01*
X169577858Y-97295385D02*
X169401336Y-97209428D01*
X169401336Y-97209428D02*
X169291901Y-97117601D01*
X169291901Y-97117601D02*
X169176597Y-96958687D01*
X169176597Y-96958687D02*
X169134249Y-96860991D01*
X169134249Y-96860991D02*
X169122510Y-96726816D01*
X169122510Y-96726816D02*
X169177859Y-96586772D01*
X169177859Y-96586772D02*
X169239077Y-96513816D01*
X169239077Y-96513816D02*
X169367382Y-96434990D01*
X169367382Y-96434990D02*
X169434469Y-96429120D01*
X169820646Y-95820728D02*
X170367821Y-96279862D01*
X170367821Y-96279862D02*
X170446647Y-96408167D01*
X170446647Y-96408167D02*
X170458386Y-96542341D01*
X170458386Y-96542341D02*
X170403037Y-96682385D01*
X170403037Y-96682385D02*
X170341819Y-96755342D01*
X171198870Y-95733949D02*
X170892780Y-96098732D01*
X170892780Y-96098732D02*
X170126736Y-95455945D01*
X171707483Y-94979643D02*
X171713352Y-95046730D01*
X171713352Y-95046730D02*
X171658004Y-95186774D01*
X171658004Y-95186774D02*
X171596786Y-95259731D01*
X171596786Y-95259731D02*
X171468481Y-95338557D01*
X171468481Y-95338557D02*
X171334306Y-95350296D01*
X171334306Y-95350296D02*
X171230741Y-95325556D01*
X171230741Y-95325556D02*
X171054219Y-95239599D01*
X171054219Y-95239599D02*
X170944784Y-95147772D01*
X170944784Y-95147772D02*
X170829479Y-94988858D01*
X170829479Y-94988858D02*
X170787132Y-94891162D01*
X170787132Y-94891162D02*
X170775393Y-94756987D01*
X170775393Y-94756987D02*
X170830741Y-94616943D01*
X170830741Y-94616943D02*
X170891959Y-94543987D01*
X170891959Y-94543987D02*
X171020264Y-94465161D01*
X171020264Y-94465161D02*
X171087352Y-94459291D01*
X171473529Y-93850899D02*
X172020704Y-94310033D01*
X172020704Y-94310033D02*
X172099530Y-94438338D01*
X172099530Y-94438338D02*
X172111268Y-94572512D01*
X172111268Y-94572512D02*
X172055920Y-94712556D01*
X172055920Y-94712556D02*
X171994702Y-94785513D01*
X172851752Y-93764120D02*
X172545663Y-94128903D01*
X172545663Y-94128903D02*
X171779619Y-93486116D01*
X173360366Y-93009814D02*
X173366235Y-93076902D01*
X173366235Y-93076902D02*
X173310886Y-93216945D01*
X173310886Y-93216945D02*
X173249669Y-93289902D01*
X173249669Y-93289902D02*
X173121364Y-93368728D01*
X173121364Y-93368728D02*
X172987189Y-93380467D01*
X172987189Y-93380467D02*
X172883623Y-93355727D01*
X172883623Y-93355727D02*
X172707101Y-93269770D01*
X172707101Y-93269770D02*
X172597666Y-93177943D01*
X172597666Y-93177943D02*
X172482362Y-93019029D01*
X172482362Y-93019029D02*
X172440014Y-92921333D01*
X172440014Y-92921333D02*
X172428276Y-92787158D01*
X172428276Y-92787158D02*
X172483624Y-92647114D01*
X172483624Y-92647114D02*
X172544842Y-92574158D01*
X172544842Y-92574158D02*
X172673147Y-92495332D01*
X172673147Y-92495332D02*
X172740234Y-92489462D01*
X176055558Y-95629294D02*
X176055558Y-94629294D01*
X176055558Y-94629294D02*
X176626986Y-95629294D01*
X176626986Y-95629294D02*
X176626986Y-94629294D01*
X177531748Y-95629294D02*
X177531748Y-95105484D01*
X177531748Y-95105484D02*
X177484129Y-95010246D01*
X177484129Y-95010246D02*
X177388891Y-94962627D01*
X177388891Y-94962627D02*
X177198415Y-94962627D01*
X177198415Y-94962627D02*
X177103177Y-95010246D01*
X177531748Y-95581675D02*
X177436510Y-95629294D01*
X177436510Y-95629294D02*
X177198415Y-95629294D01*
X177198415Y-95629294D02*
X177103177Y-95581675D01*
X177103177Y-95581675D02*
X177055558Y-95486436D01*
X177055558Y-95486436D02*
X177055558Y-95391198D01*
X177055558Y-95391198D02*
X177103177Y-95295960D01*
X177103177Y-95295960D02*
X177198415Y-95248341D01*
X177198415Y-95248341D02*
X177436510Y-95248341D01*
X177436510Y-95248341D02*
X177531748Y-95200722D01*
X178007939Y-94962627D02*
X178007939Y-95629294D01*
X178007939Y-95057865D02*
X178055558Y-95010246D01*
X178055558Y-95010246D02*
X178150796Y-94962627D01*
X178150796Y-94962627D02*
X178293653Y-94962627D01*
X178293653Y-94962627D02*
X178388891Y-95010246D01*
X178388891Y-95010246D02*
X178436510Y-95105484D01*
X178436510Y-95105484D02*
X178436510Y-95629294D01*
X179055558Y-95629294D02*
X178960320Y-95581675D01*
X178960320Y-95581675D02*
X178912701Y-95534055D01*
X178912701Y-95534055D02*
X178865082Y-95438817D01*
X178865082Y-95438817D02*
X178865082Y-95153103D01*
X178865082Y-95153103D02*
X178912701Y-95057865D01*
X178912701Y-95057865D02*
X178960320Y-95010246D01*
X178960320Y-95010246D02*
X179055558Y-94962627D01*
X179055558Y-94962627D02*
X179198415Y-94962627D01*
X179198415Y-94962627D02*
X179293653Y-95010246D01*
X179293653Y-95010246D02*
X179341272Y-95057865D01*
X179341272Y-95057865D02*
X179388891Y-95153103D01*
X179388891Y-95153103D02*
X179388891Y-95438817D01*
X179388891Y-95438817D02*
X179341272Y-95534055D01*
X179341272Y-95534055D02*
X179293653Y-95581675D01*
X179293653Y-95581675D02*
X179198415Y-95629294D01*
X179198415Y-95629294D02*
X179055558Y-95629294D01*
X179817463Y-95629294D02*
X179817463Y-94629294D01*
X179817463Y-94629294D02*
X180055558Y-94629294D01*
X180055558Y-94629294D02*
X180198415Y-94676913D01*
X180198415Y-94676913D02*
X180293653Y-94772151D01*
X180293653Y-94772151D02*
X180341272Y-94867389D01*
X180341272Y-94867389D02*
X180388891Y-95057865D01*
X180388891Y-95057865D02*
X180388891Y-95200722D01*
X180388891Y-95200722D02*
X180341272Y-95391198D01*
X180341272Y-95391198D02*
X180293653Y-95486436D01*
X180293653Y-95486436D02*
X180198415Y-95581675D01*
X180198415Y-95581675D02*
X180055558Y-95629294D01*
X180055558Y-95629294D02*
X179817463Y-95629294D01*
X181198415Y-95581675D02*
X181103177Y-95629294D01*
X181103177Y-95629294D02*
X180912701Y-95629294D01*
X180912701Y-95629294D02*
X180817463Y-95581675D01*
X180817463Y-95581675D02*
X180769844Y-95486436D01*
X180769844Y-95486436D02*
X180769844Y-95105484D01*
X180769844Y-95105484D02*
X180817463Y-95010246D01*
X180817463Y-95010246D02*
X180912701Y-94962627D01*
X180912701Y-94962627D02*
X181103177Y-94962627D01*
X181103177Y-94962627D02*
X181198415Y-95010246D01*
X181198415Y-95010246D02*
X181246034Y-95105484D01*
X181246034Y-95105484D02*
X181246034Y-95200722D01*
X181246034Y-95200722D02*
X180769844Y-95295960D01*
X181674606Y-94962627D02*
X181674606Y-95962627D01*
X181674606Y-95010246D02*
X181769844Y-94962627D01*
X181769844Y-94962627D02*
X181960320Y-94962627D01*
X181960320Y-94962627D02*
X182055558Y-95010246D01*
X182055558Y-95010246D02*
X182103177Y-95057865D01*
X182103177Y-95057865D02*
X182150796Y-95153103D01*
X182150796Y-95153103D02*
X182150796Y-95438817D01*
X182150796Y-95438817D02*
X182103177Y-95534055D01*
X182103177Y-95534055D02*
X182055558Y-95581675D01*
X182055558Y-95581675D02*
X181960320Y-95629294D01*
X181960320Y-95629294D02*
X181769844Y-95629294D01*
X181769844Y-95629294D02*
X181674606Y-95581675D01*
X182722225Y-95629294D02*
X182626987Y-95581675D01*
X182626987Y-95581675D02*
X182579368Y-95486436D01*
X182579368Y-95486436D02*
X182579368Y-94629294D01*
X183246035Y-95629294D02*
X183150797Y-95581675D01*
X183150797Y-95581675D02*
X183103178Y-95534055D01*
X183103178Y-95534055D02*
X183055559Y-95438817D01*
X183055559Y-95438817D02*
X183055559Y-95153103D01*
X183055559Y-95153103D02*
X183103178Y-95057865D01*
X183103178Y-95057865D02*
X183150797Y-95010246D01*
X183150797Y-95010246D02*
X183246035Y-94962627D01*
X183246035Y-94962627D02*
X183388892Y-94962627D01*
X183388892Y-94962627D02*
X183484130Y-95010246D01*
X183484130Y-95010246D02*
X183531749Y-95057865D01*
X183531749Y-95057865D02*
X183579368Y-95153103D01*
X183579368Y-95153103D02*
X183579368Y-95438817D01*
X183579368Y-95438817D02*
X183531749Y-95534055D01*
X183531749Y-95534055D02*
X183484130Y-95581675D01*
X183484130Y-95581675D02*
X183388892Y-95629294D01*
X183388892Y-95629294D02*
X183246035Y-95629294D01*
X183912702Y-94962627D02*
X184150797Y-95629294D01*
X184388892Y-94962627D02*
X184150797Y-95629294D01*
X184150797Y-95629294D02*
X184055559Y-95867389D01*
X184055559Y-95867389D02*
X184007940Y-95915008D01*
X184007940Y-95915008D02*
X183912702Y-95962627D01*
X176007939Y-96953523D02*
X176484129Y-96953523D01*
X175912701Y-97239238D02*
X176246034Y-96239238D01*
X176246034Y-96239238D02*
X176579367Y-97239238D01*
X177055558Y-97239238D02*
X176960320Y-97191619D01*
X176960320Y-97191619D02*
X176912701Y-97096380D01*
X176912701Y-97096380D02*
X176912701Y-96239238D01*
X177293654Y-96572571D02*
X177674606Y-96572571D01*
X177436511Y-96239238D02*
X177436511Y-97096380D01*
X177436511Y-97096380D02*
X177484130Y-97191619D01*
X177484130Y-97191619D02*
X177579368Y-97239238D01*
X177579368Y-97239238D02*
X177674606Y-97239238D01*
X178007940Y-97239238D02*
X178007940Y-96572571D01*
X178007940Y-96239238D02*
X177960321Y-96286857D01*
X177960321Y-96286857D02*
X178007940Y-96334476D01*
X178007940Y-96334476D02*
X178055559Y-96286857D01*
X178055559Y-96286857D02*
X178007940Y-96239238D01*
X178007940Y-96239238D02*
X178007940Y-96334476D01*
X178484130Y-97239238D02*
X178484130Y-96572571D01*
X178484130Y-96667809D02*
X178531749Y-96620190D01*
X178531749Y-96620190D02*
X178626987Y-96572571D01*
X178626987Y-96572571D02*
X178769844Y-96572571D01*
X178769844Y-96572571D02*
X178865082Y-96620190D01*
X178865082Y-96620190D02*
X178912701Y-96715428D01*
X178912701Y-96715428D02*
X178912701Y-97239238D01*
X178912701Y-96715428D02*
X178960320Y-96620190D01*
X178960320Y-96620190D02*
X179055558Y-96572571D01*
X179055558Y-96572571D02*
X179198415Y-96572571D01*
X179198415Y-96572571D02*
X179293654Y-96620190D01*
X179293654Y-96620190D02*
X179341273Y-96715428D01*
X179341273Y-96715428D02*
X179341273Y-97239238D01*
X180198415Y-97191619D02*
X180103177Y-97239238D01*
X180103177Y-97239238D02*
X179912701Y-97239238D01*
X179912701Y-97239238D02*
X179817463Y-97191619D01*
X179817463Y-97191619D02*
X179769844Y-97096380D01*
X179769844Y-97096380D02*
X179769844Y-96715428D01*
X179769844Y-96715428D02*
X179817463Y-96620190D01*
X179817463Y-96620190D02*
X179912701Y-96572571D01*
X179912701Y-96572571D02*
X180103177Y-96572571D01*
X180103177Y-96572571D02*
X180198415Y-96620190D01*
X180198415Y-96620190D02*
X180246034Y-96715428D01*
X180246034Y-96715428D02*
X180246034Y-96810666D01*
X180246034Y-96810666D02*
X179769844Y-96905904D01*
X180531749Y-96572571D02*
X180912701Y-96572571D01*
X180674606Y-96239238D02*
X180674606Y-97096380D01*
X180674606Y-97096380D02*
X180722225Y-97191619D01*
X180722225Y-97191619D02*
X180817463Y-97239238D01*
X180817463Y-97239238D02*
X180912701Y-97239238D01*
X181626987Y-97191619D02*
X181531749Y-97239238D01*
X181531749Y-97239238D02*
X181341273Y-97239238D01*
X181341273Y-97239238D02*
X181246035Y-97191619D01*
X181246035Y-97191619D02*
X181198416Y-97096380D01*
X181198416Y-97096380D02*
X181198416Y-96715428D01*
X181198416Y-96715428D02*
X181246035Y-96620190D01*
X181246035Y-96620190D02*
X181341273Y-96572571D01*
X181341273Y-96572571D02*
X181531749Y-96572571D01*
X181531749Y-96572571D02*
X181626987Y-96620190D01*
X181626987Y-96620190D02*
X181674606Y-96715428D01*
X181674606Y-96715428D02*
X181674606Y-96810666D01*
X181674606Y-96810666D02*
X181198416Y-96905904D01*
X182103178Y-97239238D02*
X182103178Y-96572571D01*
X182103178Y-96763047D02*
X182150797Y-96667809D01*
X182150797Y-96667809D02*
X182198416Y-96620190D01*
X182198416Y-96620190D02*
X182293654Y-96572571D01*
X182293654Y-96572571D02*
X182388892Y-96572571D01*
X183388893Y-96572571D02*
X183626988Y-97239238D01*
X183626988Y-97239238D02*
X183865083Y-96572571D01*
X184769845Y-97239238D02*
X184198417Y-97239238D01*
X184484131Y-97239238D02*
X184484131Y-96239238D01*
X184484131Y-96239238D02*
X184388893Y-96382095D01*
X184388893Y-96382095D02*
X184293655Y-96477333D01*
X184293655Y-96477333D02*
X184198417Y-96524952D01*
X185198417Y-97143999D02*
X185246036Y-97191619D01*
X185246036Y-97191619D02*
X185198417Y-97239238D01*
X185198417Y-97239238D02*
X185150798Y-97191619D01*
X185150798Y-97191619D02*
X185198417Y-97143999D01*
X185198417Y-97143999D02*
X185198417Y-97239238D01*
X185865083Y-96239238D02*
X185960321Y-96239238D01*
X185960321Y-96239238D02*
X186055559Y-96286857D01*
X186055559Y-96286857D02*
X186103178Y-96334476D01*
X186103178Y-96334476D02*
X186150797Y-96429714D01*
X186150797Y-96429714D02*
X186198416Y-96620190D01*
X186198416Y-96620190D02*
X186198416Y-96858285D01*
X186198416Y-96858285D02*
X186150797Y-97048761D01*
X186150797Y-97048761D02*
X186103178Y-97143999D01*
X186103178Y-97143999D02*
X186055559Y-97191619D01*
X186055559Y-97191619D02*
X185960321Y-97239238D01*
X185960321Y-97239238D02*
X185865083Y-97239238D01*
X185865083Y-97239238D02*
X185769845Y-97191619D01*
X185769845Y-97191619D02*
X185722226Y-97143999D01*
X185722226Y-97143999D02*
X185674607Y-97048761D01*
X185674607Y-97048761D02*
X185626988Y-96858285D01*
X185626988Y-96858285D02*
X185626988Y-96620190D01*
X185626988Y-96620190D02*
X185674607Y-96429714D01*
X185674607Y-96429714D02*
X185722226Y-96334476D01*
X185722226Y-96334476D02*
X185769845Y-96286857D01*
X185769845Y-96286857D02*
X185865083Y-96239238D01*
X182438579Y-94146460D02*
X182438579Y-93670270D01*
X182724294Y-94241698D02*
X181724294Y-93908365D01*
X181724294Y-93908365D02*
X182724294Y-93575032D01*
X181724294Y-93241698D02*
X182533817Y-93241698D01*
X182533817Y-93241698D02*
X182629055Y-93194079D01*
X182629055Y-93194079D02*
X182676675Y-93146460D01*
X182676675Y-93146460D02*
X182724294Y-93051222D01*
X182724294Y-93051222D02*
X182724294Y-92860746D01*
X182724294Y-92860746D02*
X182676675Y-92765508D01*
X182676675Y-92765508D02*
X182629055Y-92717889D01*
X182629055Y-92717889D02*
X182533817Y-92670270D01*
X182533817Y-92670270D02*
X181724294Y-92670270D01*
X181724294Y-92289317D02*
X182724294Y-91622651D01*
X181724294Y-91622651D02*
X182724294Y-92289317D01*
X174764694Y-93044765D02*
X174764694Y-92949527D01*
X174764694Y-92949527D02*
X174812313Y-92854289D01*
X174812313Y-92854289D02*
X174859932Y-92806670D01*
X174859932Y-92806670D02*
X174955170Y-92759051D01*
X174955170Y-92759051D02*
X175145646Y-92711432D01*
X175145646Y-92711432D02*
X175383741Y-92711432D01*
X175383741Y-92711432D02*
X175574217Y-92759051D01*
X175574217Y-92759051D02*
X175669455Y-92806670D01*
X175669455Y-92806670D02*
X175717075Y-92854289D01*
X175717075Y-92854289D02*
X175764694Y-92949527D01*
X175764694Y-92949527D02*
X175764694Y-93044765D01*
X175764694Y-93044765D02*
X175717075Y-93140003D01*
X175717075Y-93140003D02*
X175669455Y-93187622D01*
X175669455Y-93187622D02*
X175574217Y-93235241D01*
X175574217Y-93235241D02*
X175383741Y-93282860D01*
X175383741Y-93282860D02*
X175145646Y-93282860D01*
X175145646Y-93282860D02*
X174955170Y-93235241D01*
X174955170Y-93235241D02*
X174859932Y-93187622D01*
X174859932Y-93187622D02*
X174812313Y-93140003D01*
X174812313Y-93140003D02*
X174764694Y-93044765D01*
X174764694Y-92425717D02*
X175764694Y-92092384D01*
X175764694Y-92092384D02*
X174764694Y-91759051D01*
X164398372Y-98890358D02*
X164112658Y-99652263D01*
X164112658Y-99652263D02*
X163826944Y-98890358D01*
X163826944Y-100128453D02*
X163779325Y-100176072D01*
X163779325Y-100176072D02*
X163731705Y-100128453D01*
X163731705Y-100128453D02*
X163779325Y-100080834D01*
X163779325Y-100080834D02*
X163826944Y-100128453D01*
X163826944Y-100128453D02*
X163731705Y-100128453D01*
X164350753Y-100128453D02*
X164303134Y-100176072D01*
X164303134Y-100176072D02*
X164255515Y-100128453D01*
X164255515Y-100128453D02*
X164303134Y-100080834D01*
X164303134Y-100080834D02*
X164350753Y-100128453D01*
X164350753Y-100128453D02*
X164255515Y-100128453D01*
X164731705Y-100509405D02*
X164731705Y-101128452D01*
X164731705Y-101128452D02*
X164350753Y-100795119D01*
X164350753Y-100795119D02*
X164350753Y-100937976D01*
X164350753Y-100937976D02*
X164303134Y-101033214D01*
X164303134Y-101033214D02*
X164255515Y-101080833D01*
X164255515Y-101080833D02*
X164160277Y-101128452D01*
X164160277Y-101128452D02*
X163922182Y-101128452D01*
X163922182Y-101128452D02*
X163826944Y-101080833D01*
X163826944Y-101080833D02*
X163779325Y-101033214D01*
X163779325Y-101033214D02*
X163731705Y-100937976D01*
X163731705Y-100937976D02*
X163731705Y-100652262D01*
X163731705Y-100652262D02*
X163779325Y-100557024D01*
X163779325Y-100557024D02*
X163826944Y-100509405D01*
D11*
X160865409Y-96111914D02*
X160913028Y-95969057D01*
X160913028Y-95969057D02*
X160960647Y-95921438D01*
X160960647Y-95921438D02*
X161055885Y-95873819D01*
X161055885Y-95873819D02*
X161198742Y-95873819D01*
X161198742Y-95873819D02*
X161293980Y-95921438D01*
X161293980Y-95921438D02*
X161341600Y-95969057D01*
X161341600Y-95969057D02*
X161389219Y-96064295D01*
X161389219Y-96064295D02*
X161389219Y-96445247D01*
X161389219Y-96445247D02*
X160389219Y-96445247D01*
X160389219Y-96445247D02*
X160389219Y-96111914D01*
X160389219Y-96111914D02*
X160436838Y-96016676D01*
X160436838Y-96016676D02*
X160484457Y-95969057D01*
X160484457Y-95969057D02*
X160579695Y-95921438D01*
X160579695Y-95921438D02*
X160674933Y-95921438D01*
X160674933Y-95921438D02*
X160770171Y-95969057D01*
X160770171Y-95969057D02*
X160817790Y-96016676D01*
X160817790Y-96016676D02*
X160865409Y-96111914D01*
X160865409Y-96111914D02*
X160865409Y-96445247D01*
X160389219Y-95588104D02*
X160389219Y-95016676D01*
X161389219Y-95302390D02*
X160389219Y-95302390D01*
X161389219Y-94159533D02*
X161389219Y-94730961D01*
X161389219Y-94445247D02*
X160389219Y-94445247D01*
X160389219Y-94445247D02*
X160532076Y-94540485D01*
X160532076Y-94540485D02*
X160627314Y-94635723D01*
X160627314Y-94635723D02*
X160674933Y-94730961D01*
X168918047Y-93022009D02*
X169060904Y-93069628D01*
X169060904Y-93069628D02*
X169108523Y-93117247D01*
X169108523Y-93117247D02*
X169156142Y-93212485D01*
X169156142Y-93212485D02*
X169156142Y-93355342D01*
X169156142Y-93355342D02*
X169108523Y-93450580D01*
X169108523Y-93450580D02*
X169060904Y-93498200D01*
X169060904Y-93498200D02*
X168965666Y-93545819D01*
X168965666Y-93545819D02*
X168584714Y-93545819D01*
X168584714Y-93545819D02*
X168584714Y-92545819D01*
X168584714Y-92545819D02*
X168918047Y-92545819D01*
X168918047Y-92545819D02*
X169013285Y-92593438D01*
X169013285Y-92593438D02*
X169060904Y-92641057D01*
X169060904Y-92641057D02*
X169108523Y-92736295D01*
X169108523Y-92736295D02*
X169108523Y-92831533D01*
X169108523Y-92831533D02*
X169060904Y-92926771D01*
X169060904Y-92926771D02*
X169013285Y-92974390D01*
X169013285Y-92974390D02*
X168918047Y-93022009D01*
X168918047Y-93022009D02*
X168584714Y-93022009D01*
X169489476Y-92545819D02*
X170156142Y-92545819D01*
X170156142Y-92545819D02*
X169489476Y-93545819D01*
X169489476Y-93545819D02*
X170156142Y-93545819D01*
X171060904Y-93545819D02*
X170489476Y-93545819D01*
X170775190Y-93545819D02*
X170775190Y-92545819D01*
X170775190Y-92545819D02*
X170679952Y-92688676D01*
X170679952Y-92688676D02*
X170584714Y-92783914D01*
X170584714Y-92783914D02*
X170489476Y-92831533D01*
D12*
G04 #@! TO.C,J3*
X186382000Y-95168000D02*
X186382000Y-95568000D01*
X186622000Y-95408000D02*
X186622000Y-101188000D01*
X187022000Y-95168000D02*
X186382000Y-95168000D01*
X187142000Y-95408000D02*
X187142000Y-101188000D01*
X192242000Y-95408000D02*
X192242000Y-101188000D01*
X193362000Y-95408000D02*
X186622000Y-95408000D01*
X193362000Y-95408000D02*
X193362000Y-101188000D01*
X193362000Y-101188000D02*
X186622000Y-101188000D01*
G04 #@! TO.C,BT1*
X161373000Y-93980000D02*
X161373000Y-91920000D01*
X163493000Y-91920000D02*
X161373000Y-91920000D01*
X163493000Y-93980000D02*
X161373000Y-93980000D01*
X163493000Y-93980000D02*
X163493000Y-91920000D01*
X163493000Y-94980000D02*
X163493000Y-96040000D01*
X163493000Y-96040000D02*
X162433000Y-96040000D01*
G04 #@! TO.C,BZ1*
X165199000Y-91920000D02*
X165199000Y-94120000D01*
X165199000Y-91920000D02*
X174399000Y-91920000D01*
X165199000Y-94120000D02*
X164799000Y-94120000D01*
X165199000Y-98920000D02*
X165199000Y-101120000D01*
X174399000Y-91920000D02*
X174399000Y-94120000D01*
X174399000Y-98920000D02*
X174399000Y-101120000D01*
X174399000Y-101120000D02*
X165199000Y-101120000D01*
G04 #@! TO.C,J2*
X175569000Y-101473600D02*
X175569000Y-100473600D01*
X175569000Y-101473600D02*
X176569000Y-101473600D01*
X175859000Y-97763600D02*
X175859000Y-101183600D01*
X175859000Y-101183600D02*
X185329000Y-101183600D01*
X176169000Y-99123600D02*
X176369000Y-99123600D01*
X176169000Y-99923600D02*
X176169000Y-99123600D01*
X176369000Y-98273600D02*
X180594000Y-98273600D01*
X176369000Y-99123600D02*
X176369000Y-98273600D01*
X176369000Y-99923600D02*
X176169000Y-99923600D01*
X176369000Y-100673600D02*
X176369000Y-99923600D01*
X180594000Y-100673600D02*
X176369000Y-100673600D01*
X180594000Y-100673600D02*
X184819000Y-100673600D01*
X184819000Y-98273600D02*
X180594000Y-98273600D01*
X184819000Y-99123600D02*
X184819000Y-98273600D01*
X184819000Y-99923600D02*
X185019000Y-99923600D01*
X184819000Y-100673600D02*
X184819000Y-99923600D01*
X185019000Y-99123600D02*
X184819000Y-99123600D01*
X185019000Y-99923600D02*
X185019000Y-99123600D01*
X185329000Y-97763600D02*
X175859000Y-97763600D01*
X185329000Y-101183600D02*
X185329000Y-97763600D01*
G04 #@! TO.C,TP1*
X176088000Y-91760000D02*
X177988000Y-91760000D01*
X176088000Y-93660000D02*
X176088000Y-91760000D01*
X177988000Y-91760000D02*
X177988000Y-93660000D01*
X177988000Y-93660000D02*
X176088000Y-93660000D01*
G04 #@! TO.C,J1*
X153221000Y-91852000D02*
X159961000Y-91852000D01*
X153221000Y-97632000D02*
X153221000Y-91852000D01*
X153221000Y-97632000D02*
X159961000Y-97632000D01*
X154341000Y-97632000D02*
X154341000Y-91852000D01*
X159441000Y-97632000D02*
X159441000Y-91852000D01*
X159561000Y-97872000D02*
X160201000Y-97872000D01*
X159961000Y-97632000D02*
X159961000Y-91852000D01*
X160201000Y-97872000D02*
X160201000Y-97472000D01*
G04 #@! TO.C,TP2*
X179390000Y-91760000D02*
X181290000Y-91760000D01*
X179390000Y-93660000D02*
X179390000Y-91760000D01*
X181290000Y-91760000D02*
X181290000Y-93660000D01*
X181290000Y-93660000D02*
X179390000Y-93660000D01*
G04 #@! TD*
M02*
